<svg xmlns="http://www.w3.org/2000/svg" viewBox="0 0 64 64">
  <defs>
    <linearGradient id="grad" x1="0%" y1="0%" x2="100%" y2="100%">
      <stop offset="0%" style="stop-color:#0F5E3C"/>
      <stop offset="100%" style="stop-color:#073d26"/>
    </linearGradient>
  </defs>
  <rect width="64" height="64" rx="14" fill="url(#grad)"/>
  <path d="M20 18h24c1.1 0 2 .9 2 2v6c0 1.1-.9 2-2 2H20c-1.1 0-2-.9-2-2v-6c0-1.1.9-2 2-2z" fill="rgba(255,255,255,0.9)"/>
  <path d="M20 32h18c1.1 0 2 .9 2 2v6c0 1.1-.9 2-2 2H20c-1.1 0-2-.9-2-2v-6c0-1.1.9-2 2-2z" fill="rgba(255,255,255,0.7)"/>
  <path d="M20 46h12c1.1 0 2 .9 2 2v2c0 1.1-.9 2-2 2H20c-1.1 0-2-.9-2-2v-2c0-1.1.9-2 2-2z" fill="rgba(255,255,255,0.5)"/>
  <circle cx="50" cy="38" r="8" fill="none" stroke="rgba(255,255,255,0.9)" stroke-width="3"/>
  <line x1="55" y1="43" x2="58" y2="46" stroke="rgba(255,255,255,0.9)" stroke-width="3" stroke-linecap="round"/>
</svg>
